<svg xmlns="http://www.w3.org/2000/svg" aria-hidden="true" style="position:absolute;width:0;height:0;overflow:hidden"><defs><symbol id="minus" viewBox="0 0 32 32"><path fill="none" stroke="#fafafa" stroke-linecap="round" stroke-linejoin="round" stroke-width="2.909" d="M8 8h16" style="stroke:var(--color1, #fafafa)"/></symbol><symbol id="arrowtotheright" viewBox="0 0 32 32"><path fill="none" stroke="#fafafa" stroke-linecap="round" stroke-linejoin="round" stroke-width="2.667" d="M4.667 16H26m-8-8 8 8-8 8" style="stroke:var(--color1, #fafafa)"/></symbol><symbol id="arrowtotheleft" viewBox="0 0 32 32"><path fill="none" stroke="#fafafa" stroke-linecap="round" stroke-linejoin="round" stroke-width="2.667" d="M27.333 16H6m8 8-8-8 8-8" style="stroke:var(--color1, #fafafa)"/></symbol><symbol id="hourglass" viewBox="0 0 32 32"><path fill="none" stroke="#fafafa" stroke-linejoin="round" stroke-width="2.667" d="M24.213 2.667c.613 0 1.12.493 1.12 1.107 0 3.56-1.413 6.96-3.933 9.48l-1.627 1.627c-.16.16-.24.24-.293.32-.36.467-.36 1.12 0 1.587.053.08.133.16.293.32l1.627 1.627a13.391 13.391 0 0 1 3.933 9.48c0 .613-.507 1.12-1.12 1.12H7.773a1.116 1.116 0 0 1-1.107-1.12c0-3.56 1.4-6.96 3.92-9.48l1.627-1.627c.16-.16.24-.24.293-.32.36-.467.36-1.12 0-1.587-.053-.08-.133-.16-.293-.32l-1.627-1.627a13.379 13.379 0 0 1-3.92-9.48c0-.613.493-1.107 1.107-1.107h16.44z" style="stroke:var(--color1, #fafafa)"/></symbol><symbol id="brush" viewBox="0 0 32 32"><path fill="none" stroke="#fafafa" stroke-linecap="round" stroke-linejoin="round" stroke-width="2.667" d="M12 14.96 17.027 20" style="stroke:var(--color1, #fafafa)"/><path fill="none" stroke="#fafafa" stroke-linejoin="round" stroke-width="2.667" d="M2.667 29.333c1.36-2.667-.467-6.147 1.36-7.973s4.773-1.827 6.6 0 1.827 4.773 0 6.6-5.293 1.373-7.96 1.373zM23.92 3.92a2.935 2.935 0 0 1 4.147 4.147l-12.173 13.16c-.64.68-.947 1.013-1.28 1.213-.813.48-1.8.493-2.627.053-.347-.187-.667-.507-1.32-1.16C10 20.666 9.68 20.346 9.494 20a2.674 2.674 0 0 1 .053-2.627c.2-.333.533-.64 1.213-1.28L23.92 3.92z" style="stroke:var(--color1, #fafafa)"/></symbol><symbol id="user" viewBox="0 0 32 32"><path fill="none" stroke="#fafafa" stroke-linecap="round" stroke-linejoin="round" stroke-width="2.667" d="M5.333 28c0-1.867 0-2.8.227-3.56a5.339 5.339 0 0 1 3.547-3.547c.76-.227 1.693-.227 3.56-.227h6.667c1.853 0 2.787 0 3.547.227 1.693.52 3.04 1.853 3.547 3.547.24.76.24 1.693.24 3.56" style="stroke:var(--color1, #fafafa)"/><path fill="none" stroke="#fafafa" stroke-linejoin="round" stroke-width="2.667" d="M16 16a6 6 0 0 1-6-6c0-3.32 2.68-6 6-6a6 6 0 0 1 6 6c0 3.307-2.693 6-6 6z" style="stroke:var(--color1, #fafafa)"/></symbol><symbol id="x" viewBox="0 0 32 32"><path fill="none" stroke="#fafafa" stroke-linecap="round" stroke-linejoin="round" stroke-width="2.286" d="M24 8 8 24" style="stroke:var(--color1, #fafafa)"/><path fill="#fafafa" d="m8.8 7.189 16 16-1.611 1.611-16-16a1.118 1.118 0 0 1 0-1.611 1.118 1.118 0 0 1 1.611 0z" style="fill:var(--color1, #fafafa)"/></symbol><symbol xmlns="http://www.w3.org/2000/svg" id="menu" fill="none" viewBox="0 0 24 12"><path stroke="#FAFAFA" stroke-linecap="round" stroke-linejoin="round" stroke-width="2" d="M1.5 1.917h21m-21 8.166h21"/></symbol><symbol xmlns="http://www.w3.org/2000/svg" id="icon-arrow-down" fill="none" viewBox="0 0 12 8"><path stroke="currentColor" stroke-width="2" d="m11 6.5-5-5-5 5"/></symbol><symbol xmlns="http://www.w3.org/2000/svg" id="icon-arrow-up" fill="none" viewBox="0 0 12 8"><path stroke="currentColor" stroke-width="2" d="m11 1.5-5 5-5-5"/></symbol><symbol xmlns="http://www.w3.org/2000/svg" id="messeges" fill="none" viewBox="0 0 24 24"><path stroke="#FAFAFA" stroke-linecap="round" stroke-linejoin="round" stroke-width="2" d="M6.094 11.229A8.01 8.01 0 0 1 6 10c0-4.418 3.605-8 8.053-8 4.447 0 8.052 3.582 8.052 8 0 .998-.184 1.954-.52 2.835-.07.182-.105.274-.12.345a.897.897 0 0 0-.024.194c-.002.073.008.153.028.314l.403 3.27c.043.355.065.532.006.66a.5.5 0 0 1-.257.252c-.13.055-.306.03-.66-.022l-3.184-.467c-.167-.024-.25-.037-.326-.036a.898.898 0 0 0-.2.021c-.074.016-.169.051-.358.122a8.174 8.174 0 0 1-4.07.42M7.632 22C10.597 22 13 19.538 13 16.5S10.597 11 7.632 11c-2.965 0-5.369 2.462-5.369 5.5 0 .61.097 1.198.277 1.747.075.232.113.348.126.427.013.083.015.13.01.213-.005.08-.025.17-.065.351L2 22l2.995-.409c.163-.022.245-.034.316-.033.076 0 .115.005.19.02.07.013.173.05.381.123a5.246 5.246 0 0 0 1.75.299Z"/></symbol></defs></svg>