<svg xmlns="http://www.w3.org/2000/svg" aria-hidden="true" style="position:absolute;width:0;height:0;overflow:hidden">
  <defs>
    <symbol id="minus" viewBox="0 0 32 32">
      <path fill="none" stroke="#fafafa" stroke-linecap="round" stroke-linejoin="round" stroke-width="2.909" d="M8 8h16"
        style="stroke:var(--color1, #fafafa)" />
    </symbol>
    <symbol id="arrowtotheright" viewBox="0 0 32 32">
      <path fill="none" stroke="#fafafa" stroke-linecap="round" stroke-linejoin="round" stroke-width="2.667"
        d="M4.667 16H26M18 8l8 8-8 8" style="stroke:var(--color1, #fafafa)" />
    </symbol>
    <symbol id="arrowtotheleft" viewBox="0 0 32 32">
      <path fill="none" stroke="#fafafa" stroke-linecap="round" stroke-linejoin="round" stroke-width="2.667"
        d="M27.333 16H6M14 24l-8-8 8-8" style="stroke:var(--color1, #fafafa)" />
    </symbol>
    <symbol id="hourglass" viewBox="0 0 32 32">
      <path fill="none" stroke="#fafafa" stroke-linejoin="round" stroke-width="2.667"
        d="M24.213 2.667c.613 0 1.12.493 1.12 1.107 0 3.56-1.413 6.96-3.933 9.48l-1.627 1.627c-.16.16-.24.24-.293.32-.36.467-.36 1.12 0 1.587.053.08.133.16.293.32l1.627 1.627a13.391 13.391 0 0 1 3.933 9.48c0 .613-.507 1.12-1.12 1.12H7.773a1.116 1.116 0 0 1-1.107-1.12c0-3.56 1.4-6.96 3.92-9.48l1.627-1.627c.16-.16.24-.24.293-.32.36-.467.36-1.12 0-1.587-.053-.08-.133-.16-.293-.32l-1.627-1.627a13.379 13.379 0 0 1-3.92-9.48c0-.613.493-1.107 1.107-1.107h16.44z"
        style="stroke:var(--color1, #fafafa)" />
    </symbol>
    <symbol id="brush" viewBox="0 0 32 32">
      <path fill="none" stroke="#fafafa" stroke-linecap="round" stroke-linejoin="round" stroke-width="2.667"
        d="M12 14.96 17.027 20" style="stroke:var(--color1, #fafafa)" />
      <path fill="none" stroke="#fafafa" stroke-linejoin="round" stroke-width="2.667"
        d="M2.667 29.333c1.36-2.667-.467-6.147 1.36-7.973s4.773-1.827 6.6 0 1.827 4.773 0 6.6-5.293 1.373-7.96 1.373zM23.92 3.92a2.935 2.935 0 0 1 4.147 4.147l-12.173 13.16c-.64.68-.947 1.013-1.28 1.213-.813.48-1.8.493-2.627.053-.347-.187-.667-.507-1.32-1.16C10 20.666 9.68 20.346 9.494 20a2.674 2.674 0 0 1 .053-2.627c.2-.333.533-.64 1.213-1.28L23.92 3.92z"
        style="stroke:var(--color1, #fafafa)" />
    </symbol>
    <symbol id="user" viewBox="0 0 32 32">
      <path fill="none" stroke="#fafafa" stroke-linecap="round" stroke-linejoin="round" stroke-width="2.667"
        d="M5.333 28c0-1.867 0-2.8.227-3.56a5.339 5.339 0 0 1 3.547-3.547c.76-.227 1.693-.227 3.56-.227h6.667c1.853 0 2.787 0 3.547.227 1.693.52 3.04 1.853 3.547 3.547.24.76.24 1.693.24 3.56"
        style="stroke:var(--color1, #fafafa)" />
      <path fill="none" stroke="#fafafa" stroke-linejoin="round" stroke-width="2.667"
        d="M16 16a6 6 0 0 1-6-6c0-3.32 2.68-6 6-6a6 6 0 0 1 6 6c0 3.307-2.693 6-6 6z"
        style="stroke:var(--color1, #fafafa)" />
    </symbol>
    <symbol id="button-up" viewBox="0 0 32 32">
      <path fill="#fafafa"
        d="m12.8 13.507 3.789 3.789-.589.598-.598-.598 3.789-3.789 1.187 1.187-4.379 4.387-4.387-4.387 1.187-1.187z"
        style="fill:var(--color1, #fafafa)" />
      <path fill="none" stroke="#fafafa" stroke-width=".842"
        d="M15.158 30.737c-8.604 0-15.579-6.975-15.579-15.579S6.554-.421 15.158-.421c8.604 0 15.579 6.975 15.579 15.579s-6.975 15.579-15.579 15.579z"
        style="stroke:var(--color1, #fafafa)" />
    </symbol>
    <symbol id="buttondown" viewBox="0 0 32 32">
      <path fill="#fafafa"
        d="m19.192 18.484-3.789-3.789.598-.589.589.589-3.789 3.789-1.187-1.187 4.387-4.387 4.379 4.387-1.187 1.187z"
        style="fill:var(--color1, #fafafa)" />
      <path fill="none" stroke="#fafafa" stroke-width=".842"
        d="M16 .421C24.604.421 31.579 7.396 31.579 16S24.604 31.579 16 31.579C7.396 31.579.421 24.604.421 16S7.396.421 16 .421z"
        style="stroke:var(--color1, #fafafa)" />
    </symbol>
    <symbol id="x" viewBox="0 0 32 32">
      <path fill="none" stroke="#fafafa" stroke-linecap="round" stroke-linejoin="round" stroke-width="2.286"
        d="M24 8 8 24" style="stroke:var(--color1, #fafafa)" />
      <path fill="#fafafa" d="m8.8 7.189 16 16-1.611 1.611-16-16a1.118 1.118 0 0 1 0-1.611 1.118 1.118 0 0 1 1.611 0z"
        style="fill:var(--color1, #fafafa)" />
    </symbol>
    <symbol id="menu" viewBox="0 0 32 32">
      <path fill="none" stroke="#fafafa" stroke-linejoin="round" stroke-width="2.286" d="M4 11.326h24M4 20.663h24"
        style="stroke:var(--color1, #fafafa)" />
    </symbol>
    <symbol id="masegges" viewBox="0 0 33 32">
      <path stroke-linecap="round" stroke-linejoin="round" stroke-width="2.909"
        d="M17.193 24.582c.582.087 1.178.145 1.789.145 1.455 0 2.836-.276 4.131-.756.276-.102.407-.145.524-.175.102-.015.175-.029.291-.029.102 0 .233.015.465.058l4.64.669c.509.073.771.116.96.029a.639.639 0 0 0 .364-.364c.087-.189.058-.436 0-.96l-.596-4.756c-.029-.233-.044-.349-.029-.451 0-.102 0-.175.029-.276.029-.116.073-.247.175-.509.495-1.28.756-2.676.756-4.116 0-6.429-5.236-11.636-11.709-11.636S7.274 6.662 7.274 13.091c0 .596.044 1.193.131 1.775m10.05 7.679c0-4.422-3.505-8-7.811-8-4.32 0-7.811 3.578-7.811 8 0 .887.145 1.731.393 2.531.116.335.175.509.189.625s.029.189.015.305c0 .116-.029.247-.087.509l-.887 4.029 4.349-.596c.233-.044.364-.058.465-.058s.16.015.276.029c.102.029.247.073.553.189a7.74 7.74 0 0 0 2.545.436c4.305 0 7.811-3.593 7.811-8z" />
    </symbol>
  </defs>
</svg>